By request...
 
http://www.imdb.com/title/tt0322745/

Not my rip - I found it on usenet

Original NFO

###########################################################
ABC Afterschool Specials
The Incredible Indelible Magical Physical Mystery Trip
Source:		PAL VHS
Capped:		Canopus MVR1000 MPEG2 8000k CBR
Encoded:		Xvid 2-pass 512x384 AutoGK 699MB
Genre:		Animation/Live Action
Runtime:		~47 Miniutes
IMDB info: 	http://www.imdb.com/title/tt0322745/
Orig Air Date:	7 February 1973 (Season 1, Episode 5) 
RAR:			1CDROM (48x15MB)

Plot:
Animated special about two youngsters who are miniaturized
and travel through their Uncle's body, to understand more
about his health.

Notes:
Hard to get but finally found it after 3 years.
The tape had issues as it was so old (1983?) and may have
been a rental at one time. Appears to have seen heavy use.
There is a small spot in the beginning 3rd with audi fade.
Also has line on bottom that runs constantly through.
Absolutlely no reposts. Help each other out. 10% PARs incl.

I also have the ISO as it was capped in NTSC DVD and then
authored using Canopus Procoder2 if anyone is interested.
###########################################################

Mediainfo:

General
Complete name                    : E:\uploads\The Incredible Indelible Magical Physical Mystery Trip - 1973\The Incredible Indelible Magical Physical Mystery Trip - 1973.avi
Format                           : AVI
Format/Info                      : Audio Video Interleave
File size                        : 699 MiB
Duration                         : 45mn 38s
Overall bit rate                 : 2 143 Kbps
Writing application              : VirtualDubMod 1.5.4.1 (build 2178/release)
Writing library                  : VirtualDubMod build 2178/release

Video
ID                               : 0
Format                           : MPEG-4 Visual
Format profile                   : Advanced Simple@L5
Format settings, BVOP            : 1
Format settings, QPel            : No
Format settings, GMC             : No warppoints
Format settings, Matrix          : Default (H.263)
Muxing mode                      : Packed bitstream
Codec ID                         : XVID
Codec ID/Hint                    : XviD
Duration                         : 45mn 38s
Bit rate                         : 2 029 Kbps
Width                            : 512 pixels
Height                           : 384 pixels
Display aspect ratio             : 4:3
Frame rate                       : 29.970 fps
Color space                      : YUV
Chroma subsampling               : 4:2:0
Bit depth                        : 8 bits
Scan type                        : Progressive
Compression mode                 : Lossy
Bits/(Pixel*Frame)               : 0.344
Stream size                      : 662 MiB (95%)
Writing library                  : XviD 1.2.0.dev47 (UTC 2006-11-01)

Audio
ID                               : 1
Format                           : MPEG Audio
Format version                   : Version 1
Format profile                   : Layer 3
Mode                             : Joint stereo
Codec ID                         : 55
Codec ID/Hint                    : MP3
Duration                         : 45mn 38s
Bit rate mode                    : Variable
Bit rate                         : 100 Kbps
Nominal bit rate                 : 128 Kbps
Channel(s)                       : 2 channels
Sampling rate                    : 48.0 KHz
Compression mode                 : Lossy
Stream size                      : 32.7 MiB (5%)
Alignment                        : Aligned on interleaves
Interleave, duration             : 24 ms (0.72 video frame)
Interleave, preload duration     : 498 ms
Writing library                  : LAME3.97 
Encoding settings                : -m j -V 4 -q 2 -lowpass 17 --abr 128

